<svg width="24" height="24" viewBox="0 0 24 24" fill="none" xmlns="http://www.w3.org/2000/svg">
    <defs>
        <linearGradient id="paint0_linear" x1="2.92399" y1="2" x2="19.1509" y2="20.8408"
            gradientUnits="userSpaceOnUse">
            <stop stop-color="#00A3FF" />
            <stop offset="1" stop-color="#0033E7" />
        </linearGradient>
    </defs>
    <path
        d="M12 2C10.0605 2.00369 8.16393 2.57131 6.54128 3.63374C4.91862 4.69617 3.63994 6.20754 2.86099 7.98377C2.08204 9.76 1.83643 11.7244 2.15408 13.6378C2.47173 15.5511 3.33893 17.3308 4.65005 18.76C5.58647 19.775 6.72299 20.5851 7.98799 21.1392C9.25298 21.6933 10.619 21.9793 12 21.9793C13.3811 21.9793 14.7471 21.6933 16.0121 21.1392C17.2771 20.5851 18.4136 19.775 19.35 18.76C20.6612 17.3308 21.5284 15.5511 21.846 13.6378C22.1637 11.7244 21.9181 9.76 21.1391 7.98377C20.3602 6.20754 19.0815 4.69617 17.4588 3.63374C15.8362 2.57131 13.9396 2.00369 12 2ZM12 20C9.92851 19.9969 7.93896 19.1903 6.45005 17.75C6.90209 16.6495 7.67108 15.7083 8.6593 15.0459C9.64752 14.3835 10.8104 14.0298 12 14.0298C13.1897 14.0298 14.3526 14.3835 15.3408 15.0459C16.329 15.7083 17.098 16.6495 17.55 17.75C16.0611 19.1903 14.0716 19.9969 12 20ZM10 10C10 9.60444 10.1173 9.21776 10.3371 8.88886C10.5569 8.55996 10.8692 8.30362 11.2347 8.15224C11.6001 8.00087 12.0023 7.96126 12.3902 8.03843C12.7782 8.1156 13.1346 8.30608 13.4143 8.58579C13.694 8.86549 13.8844 9.22186 13.9616 9.60982C14.0388 9.99778 13.9992 10.3999 13.8478 10.7654C13.6964 11.1308 13.4401 11.4432 13.1112 11.6629C12.7823 11.8827 12.3956 12 12 12C11.4696 12 10.9609 11.7893 10.5858 11.4142C10.2108 11.0391 10 10.5304 10 10Z"
        fill="url(#paint0_linear)" />
</svg>
