<svg width="18" height="21" viewBox="0 0 18 21" fill="none" xmlns="http://www.w3.org/2000/svg">
    <defs>
        <linearGradient id="paint0_linear" x1="0.815883" y1="0.976074" x2="17.245" y2="18.1386"
            gradientUnits="userSpaceOnUse">
            <stop stop-color="#00A3FF" />
            <stop offset="1" stop-color="#0033E7" />
        </linearGradient>
    </defs>
    <path
        d="M17 7.00001L11 1.74001C10.45 1.24805 9.7379 0.976074 8.99997 0.976074C8.26204 0.976074 7.54999 1.24805 6.99997 1.74001L0.999973 7.00001C0.682341 7.28408 0.428873 7.63256 0.256445 8.02225C0.0840165 8.41194 -0.00341463 8.83389 -2.72762e-05 9.26001V18C-2.72762e-05 18.7957 0.316043 19.5587 0.878652 20.1213C1.44126 20.6839 2.20432 21 2.99997 21H15C15.7956 21 16.5587 20.6839 17.1213 20.1213C17.6839 19.5587 18 18.7957 18 18V9.25001C18.0019 8.82557 17.9138 8.40555 17.7414 8.01769C17.5691 7.62983 17.3163 7.28296 17 7.00001ZM11 19H6.99997V14C6.99997 13.7348 7.10533 13.4804 7.29287 13.2929C7.4804 13.1054 7.73476 13 7.99997 13H9.99997C10.2652 13 10.5195 13.1054 10.7071 13.2929C10.8946 13.4804 11 13.7348 11 14V19Z"
        fill="url(#paint0_linear)" />
</svg>
