<svg width="255" height="250" viewBox="0 0 255 250" fill="none" xmlns="http://www.w3.org/2000/svg">
    <defs>
        <linearGradient id="paint0_linear" x1="108.689" y1="86.875" x2="151.88" y2="163.359"
            gradientUnits="userSpaceOnUse">
            <stop stop-color="#FF9800" />
            <stop offset="1" stop-color="#FF3D00" />
        </linearGradient>
    </defs>
    <ellipse opacity="0.2" cx="121.661" cy="127.93" rx="96.355" ry="96.6797" fill="#EFF5AB" />
    <ellipse opacity="0.3" cx="122.103" cy="127.93" rx="69.1031" ry="69.336" fill="#F5D8AB" />
    <path
        d="M164.313 145.063L131.937 89.6285C130.89 87.7814 129.362 86.2429 127.509 85.1718C125.657 84.1008 123.548 83.5361 121.399 83.5361C119.251 83.5361 117.142 84.1008 115.289 85.1718C113.437 86.2429 111.909 87.7814 110.862 89.6285L78.6872 145.063C77.6045 146.861 77.0228 148.908 77.0007 150.998C76.9785 153.087 77.5169 155.146 78.5613 156.966C79.6057 158.785 81.1193 160.301 82.9491 161.361C84.779 162.42 86.8604 162.986 88.9832 163H153.816C155.955 163.021 158.062 162.481 159.92 161.435C161.778 160.39 163.321 158.877 164.389 157.052C165.457 155.226 166.013 153.154 166 151.047C165.986 148.94 165.404 146.875 164.313 145.063Z"
        fill="url(#paint0_linear)" />
    <path
        d="M119.145 143.107C119.842 142.676 120.662 142.446 121.5 142.446C122.624 142.446 123.702 142.859 124.497 143.594C125.291 144.329 125.738 145.326 125.738 146.366C125.738 147.141 125.489 147.899 125.024 148.544C124.558 149.189 123.896 149.691 123.122 149.988C122.347 150.285 121.495 150.362 120.673 150.211C119.851 150.06 119.096 149.686 118.503 149.138C117.91 148.59 117.507 147.891 117.343 147.131C117.18 146.37 117.264 145.582 117.584 144.866C117.905 144.15 118.448 143.537 119.145 143.107Z"
        fill="white" />
    <path
        d="M118.503 112.232C119.298 111.497 120.376 111.084 121.5 111.084C122.624 111.084 123.702 111.497 124.497 112.232C125.291 112.967 125.738 113.965 125.738 115.004V130.685C125.738 131.725 125.291 132.722 124.497 133.457C123.702 134.192 122.624 134.605 121.5 134.605C120.376 134.605 119.298 134.192 118.503 133.457C117.708 132.722 117.262 131.725 117.262 130.685V115.004C117.262 113.965 117.708 112.967 118.503 112.232Z"
        fill="white" />
    <ellipse cx="36.0114" cy="38.0859" rx="4.86641" ry="4.88281" fill="#F2C94C" />
    <ellipse cx="232.614" cy="69.3359" rx="4.86641" ry="4.88281" fill="#F2C94C" />
    <ellipse cx="162.539" cy="245.117" rx="4.86641" ry="4.88281" fill="#2D9CDB" />
    <ellipse cx="113.874" cy="16.6016" rx="2.91985" ry="2.92969" fill="#2D9CDB" />
    <ellipse cx="2.91985" cy="96.6797" rx="2.91985" ry="2.92969" fill="#6FCF97" />
    <ellipse cx="226.775" cy="124.023" rx="2.91985" ry="2.92969" fill="#6FCF97" />
    <ellipse cx="201.47" cy="233.398" rx="2.91985" ry="2.92969" fill="#F2C94C" />
    <ellipse cx="39.9052" cy="231.445" rx="2.91985" ry="2.92969" fill="#6FCF97" />
    <ellipse cx="82.7289" cy="235.352" rx="2.91985" ry="2.92969" fill="#F2C94C" />
    <ellipse cx="252.08" cy="153.32" rx="2.91985" ry="2.92969" fill="#F2C94C" />
    <ellipse cx="190.763" cy="29.2969" rx="3.89313" ry="3.90625" fill="#6FCF97" />
    <ellipse cx="214.122" cy="187.5" rx="3.89313" ry="3.90625" fill="#2D9CDB" />
    <ellipse cx="7.7862" cy="142.578" rx="3.89313" ry="3.90625" fill="#2D9CDB" />
    <path
        d="M24.3757 177.751C24.9732 175.906 27.5836 175.906 28.1811 177.751L28.2339 177.914C28.5011 178.739 29.2695 179.298 30.1366 179.298H30.3218C32.2577 179.298 33.0643 181.773 31.5 182.914L31.3386 183.031C30.64 183.541 30.3477 184.441 30.614 185.264L30.673 185.446C31.27 187.29 29.1582 188.82 27.5921 187.678L27.4565 187.579C26.7545 187.067 25.8023 187.067 25.1002 187.579L24.9647 187.678C23.3986 188.82 21.2867 187.29 21.8838 185.446L21.9427 185.264C22.2091 184.441 21.9168 183.541 21.2181 183.031L21.0567 182.914C19.4925 181.773 20.2991 179.298 22.2349 179.298H22.4201C23.2873 179.298 24.0557 178.739 24.3228 177.914L24.3757 177.751Z"
        fill="#2D9CDB" />
    <path
        d="M67.2008 5.87571C67.7984 4.03059 70.4088 4.03059 71.0063 5.87571L71.0591 6.03882C71.3263 6.86383 72.0947 7.42267 72.9618 7.42267H73.147C75.0829 7.42267 75.8895 9.89847 74.3252 11.0388L74.1638 11.1565C73.4652 11.6658 73.1729 12.5663 73.4392 13.3888L73.4982 13.5707C74.0952 15.4145 71.9834 16.9447 70.4173 15.803L70.2817 15.7042C69.5797 15.1924 68.6275 15.1924 67.9254 15.7042L67.7899 15.803C66.2238 16.9447 64.1119 15.4145 64.709 13.5707L64.7679 13.3888C65.0342 12.5663 64.742 11.6658 64.0433 11.1565L63.8819 11.0388C62.3177 9.89847 63.1243 7.42267 65.0601 7.42267H65.2453C66.1125 7.42267 66.8809 6.86383 67.148 6.03882L67.2008 5.87571Z"
        fill="#6FCF97" />
</svg>
