<svg width="255" height="250" viewBox="0 0 255 250" fill="none" xmlns="http://www.w3.org/2000/svg">
    <defs>
        <linearGradient id="paint0_linear" x1="109.008" y1="90.8203" x2="142.289" y2="169.842"
            gradientUnits="userSpaceOnUse">
            <stop stop-color="#B4FFA1" />
            <stop offset="1" stop-color="#10B348" />
        </linearGradient>
    </defs>
    <ellipse opacity="0.2" cx="121.661" cy="127.93" rx="96.355" ry="96.6797" fill="#ABF5CA" />
    <ellipse opacity="0.3" cx="121.66" cy="127.93" rx="69.1031" ry="69.336" fill="#ABF5CA" />
    <ellipse cx="121.66" cy="127.93" rx="41.8512" ry="41.9922" fill="url(#paint0_linear)" />
    <path
        d="M105.576 126.491L100.816 131.266C99.9874 132.098 100.049 133.46 100.949 134.213L115.337 146.243C116.154 146.925 117.362 146.849 118.086 146.069L141.685 120.636C142.447 119.815 142.386 118.528 141.55 117.783L135.973 112.808C135.086 112.017 133.709 112.17 133.017 113.135L118.238 133.73C117.495 134.765 115.987 134.851 115.131 133.907L108.474 126.56C107.706 125.711 106.383 125.68 105.576 126.491Z"
        fill="white" />
    <ellipse cx="36.0114" cy="38.0859" rx="4.86641" ry="4.88281" fill="#F2C94C" />
    <ellipse cx="232.614" cy="69.3359" rx="4.86641" ry="4.88281" fill="#F2C94C" />
    <ellipse cx="162.539" cy="245.117" rx="4.86641" ry="4.88281" fill="#2D9CDB" />
    <ellipse cx="113.874" cy="16.6016" rx="2.91985" ry="2.92969" fill="#2D9CDB" />
    <ellipse cx="2.91985" cy="96.6797" rx="2.91985" ry="2.92969" fill="#6FCF97" />
    <ellipse cx="226.775" cy="124.023" rx="2.91985" ry="2.92969" fill="#6FCF97" />
    <ellipse cx="201.47" cy="233.398" rx="2.91985" ry="2.92969" fill="#F2C94C" />
    <ellipse cx="39.9052" cy="231.445" rx="2.91985" ry="2.92969" fill="#6FCF97" />
    <ellipse cx="82.7289" cy="235.352" rx="2.91985" ry="2.92969" fill="#F2C94C" />
    <ellipse cx="252.08" cy="153.32" rx="2.91985" ry="2.92969" fill="#F2C94C" />
    <ellipse cx="190.763" cy="29.2969" rx="3.89313" ry="3.90625" fill="#6FCF97" />
    <ellipse cx="214.122" cy="187.5" rx="3.89313" ry="3.90625" fill="#2D9CDB" />
    <ellipse cx="7.7862" cy="142.578" rx="3.89313" ry="3.90625" fill="#2D9CDB" />
    <path
        d="M24.3757 177.751C24.9732 175.906 27.5836 175.906 28.1811 177.751L28.2339 177.914C28.5011 178.739 29.2695 179.298 30.1366 179.298H30.3218C32.2577 179.298 33.0643 181.773 31.5 182.914L31.3386 183.031C30.64 183.541 30.3477 184.441 30.614 185.264L30.673 185.446C31.27 187.29 29.1582 188.82 27.5921 187.678L27.4565 187.579C26.7545 187.067 25.8023 187.067 25.1002 187.579L24.9647 187.678C23.3986 188.82 21.2867 187.29 21.8838 185.446L21.9427 185.264C22.2091 184.441 21.9168 183.541 21.2181 183.031L21.0567 182.914C19.4925 181.773 20.2991 179.298 22.2349 179.298H22.4201C23.2873 179.298 24.0557 178.739 24.3228 177.914L24.3757 177.751Z"
        fill="#2D9CDB" />
    <path
        d="M67.2008 5.87571C67.7984 4.03059 70.4088 4.03059 71.0063 5.87571L71.0591 6.03882C71.3263 6.86383 72.0947 7.42267 72.9618 7.42267H73.147C75.0829 7.42267 75.8895 9.89847 74.3252 11.0388L74.1638 11.1565C73.4652 11.6658 73.1729 12.5663 73.4392 13.3888L73.4982 13.5707C74.0952 15.4145 71.9834 16.9447 70.4173 15.803L70.2817 15.7042C69.5797 15.1924 68.6275 15.1924 67.9254 15.7042L67.7899 15.803C66.2238 16.9447 64.1119 15.4145 64.709 13.5707L64.7679 13.3888C65.0342 12.5663 64.742 11.6658 64.0433 11.1565L63.8819 11.0388C62.3177 9.89847 63.1243 7.42267 65.0601 7.42267H65.2453C66.1125 7.42267 66.8809 6.86383 67.148 6.03882L67.2008 5.87571Z"
        fill="#6FCF97" />
</svg>
